<svg xmlns="http://www.w3.org/2000/svg" viewBox="0 0 512 512" width="512" height="512">
  <defs>
    <linearGradient id="bg" x1="0" y1="0" x2="1" y2="1">
      <stop offset="0" stop-color="#2a2620"/>
      <stop offset="1" stop-color="#1c1915"/>
    </linearGradient>
    <linearGradient id="page" x1="0" y1="0" x2="0" y2="1">
      <stop offset="0" stop-color="#fbf7ec"/>
      <stop offset="1" stop-color="#efe7d3"/>
    </linearGradient>
  </defs>
  <rect width="512" height="512" rx="112" fill="url(#bg)"/>
  <!-- open book -->
  <g transform="translate(256 268)">
    <path d="M-150 -70 C -110 -100 -40 -100 0 -76 C 40 -100 110 -100 150 -70 L 150 90 C 110 64 40 64 0 88 C -40 64 -110 64 -150 90 Z" fill="url(#page)"/>
    <path d="M0 -76 L 0 88" stroke="#c9a24a" stroke-width="6" fill="none"/>
    <g stroke="#b9b09a" stroke-width="5" stroke-linecap="round">
      <path d="M-120 -52 L -28 -52"/>
      <path d="M-120 -22 L -28 -22"/>
      <path d="M-120 8 L -28 8"/>
      <path d="M-120 38 L -28 38"/>
      <path d="M28 -52 L 120 -52"/>
      <path d="M28 -22 L 120 -22"/>
      <path d="M28 8 L 120 8"/>
      <path d="M28 38 L 120 38"/>
    </g>
  </g>
  <!-- flame / light above the book -->
  <path d="M256 60 C 280 96 300 116 300 150 C 300 182 281 204 256 204 C 231 204 212 182 212 150 C 212 116 232 96 256 60 Z" fill="#c9a24a"/>
  <path d="M256 96 C 270 120 282 132 282 154 C 282 174 271 188 256 188 C 241 188 230 174 230 154 C 230 132 242 120 256 96 Z" fill="#fbe7a8"/>
</svg>
